<svg width="89" height="100" viewBox="0 0 89 100" fill="none" xmlns="http://www.w3.org/2000/svg">
<g filter="url(#filter0_d_1_105)">
<path fill-rule="evenodd" clip-rule="evenodd" d="M43.3605 6L44.8108 7.04577C59.1691 17.392 77.4496 17.7026 78.6581 17.7107H78.7199L81 17.6983L78.975 51.0869C77.9639 68.3831 46.1563 90.188 44.803 91.108L43.4905 92L42.1766 91.1099C40.7994 90.1774 8.46414 68.0775 7.60482 51.4373L6 17.6653L8.29059 17.7113C8.48452 17.7051 28.726 17.9603 41.9855 7.12295L43.3605 6Z" fill="url(#paint0_linear_1_105)" fill-opacity="0.6" shape-rendering="crispEdges"/>
<path fill-rule="evenodd" clip-rule="evenodd" d="M43.3605 6L44.8108 7.04577C59.1691 17.392 77.4496 17.7026 78.6581 17.7107H78.7199L81 17.6983L78.975 51.0869C77.9639 68.3831 46.1563 90.188 44.803 91.108L43.4905 92L42.1766 91.1099C40.7994 90.1774 8.46414 68.0775 7.60482 51.4373L6 17.6653L8.29059 17.7113C8.48452 17.7051 28.726 17.9603 41.9855 7.12295L43.3605 6Z" fill="url(#paint1_linear_1_105)" fill-opacity="0.2" shape-rendering="crispEdges"/>
<path d="M43.9454 5.18889L43.3227 4.73982L42.728 5.22546L41.3529 6.34842L41.3526 6.34868C34.9063 11.6175 26.7166 14.2196 20.0503 15.4967C13.7372 16.7062 8.88789 16.711 8.31351 16.7116C8.31256 16.7116 8.31162 16.7116 8.3107 16.7116L8.3107 16.7115L6.02011 16.6655L4.95034 16.644L5.00113 17.7127L6.60594 51.4848L6.60615 51.4889C6.83571 55.9342 9.14931 60.6259 12.3628 65.1078C15.5914 69.6106 19.8105 74.0139 24.0182 77.8987C32.4347 85.6693 40.9094 91.4596 41.6157 91.9378C41.6158 91.9378 41.6158 91.9379 41.6159 91.9379L42.9296 92.8279L43.4914 93.2085L44.0526 92.8271L45.3651 91.9351L45.3653 91.935C46.0586 91.4636 54.398 85.7486 62.7011 77.9682C66.8519 74.0787 71.0187 69.6499 74.2185 65.0813C77.4059 60.5303 79.7042 55.7416 79.9732 51.1465C79.9733 51.146 79.9733 51.1456 79.9733 51.1452L81.9982 17.7588L82.0628 16.6925L80.9945 16.6983L78.7199 16.7107H78.7173H78.6615C77.4538 16.7023 59.4707 16.3766 45.3957 6.23466C45.3956 6.23459 45.3955 6.23452 45.3954 6.23445L43.9454 5.18889Z" stroke="url(#paint2_diamond_1_105)" stroke-width="2" shape-rendering="crispEdges"/>
</g>
<defs>
<filter id="filter0_d_1_105" x="0.900635" y="0.479645" width="87.2251" height="98.9373" filterUnits="userSpaceOnUse" color-interpolation-filters="sRGB">
<feFlood flood-opacity="0" result="BackgroundImageFix"/>
<feColorMatrix in="SourceAlpha" type="matrix" values="0 0 0 0 0 0 0 0 0 0 0 0 0 0 0 0 0 0 127 0" result="hardAlpha"/>
<feOffset dx="1" dy="1"/>
<feGaussianBlur stdDeviation="2"/>
<feComposite in2="hardAlpha" operator="out"/>
<feColorMatrix type="matrix" values="0 0 0 0 0.0707465 0 0 0 0 0.679167 0 0 0 0 0.314115 0 0 0 0.76 0"/>
<feBlend mode="normal" in2="BackgroundImageFix" result="effect1_dropShadow_1_105"/>
<feBlend mode="normal" in="SourceGraphic" in2="effect1_dropShadow_1_105" result="shape"/>
</filter>
<linearGradient id="paint0_linear_1_105" x1="43.5" y1="6" x2="43.5" y2="92" gradientUnits="userSpaceOnUse">
<stop stop-color="#4DFF94"/>
<stop offset="1" stop-color="#4DFF94" stop-opacity="0.69"/>
</linearGradient>
<linearGradient id="paint1_linear_1_105" x1="43.5" y1="6" x2="43.5" y2="92" gradientUnits="userSpaceOnUse">
<stop/>
<stop offset="1" stop-color="#ABF7C8"/>
</linearGradient>
<radialGradient id="paint2_diamond_1_105" cx="0" cy="0" r="1" gradientUnits="userSpaceOnUse" gradientTransform="translate(43.5 49) rotate(90) scale(43 37.5)">
<stop stop-color="#00FF29"/>
<stop offset="1" stop-color="#00FF29" stop-opacity="0.17"/>
</radialGradient>
</defs>
</svg>
